<?xml version="1.0" encoding="UTF-8" standalone="no"?>
<svg
   xmlns:ns2="http://www.iki.fi/pav/software/textext/"
   xmlns:dc="http://purl.org/dc/elements/1.1/"
   xmlns:cc="http://creativecommons.org/ns#"
   xmlns:rdf="http://www.w3.org/1999/02/22-rdf-syntax-ns#"
   xmlns:svg="http://www.w3.org/2000/svg"
   xmlns="http://www.w3.org/2000/svg"
   xmlns:sodipodi="http://sodipodi.sourceforge.net/DTD/sodipodi-0.dtd"
   xmlns:inkscape="http://www.inkscape.org/namespaces/inkscape"
   width="210mm"
   height="297mm"
   viewBox="0 0 210 297"
   version="1.1"
   id="svg8"
   sodipodi:docname="disegno.svg"
   inkscape:version="1.0.2 (e86c870879, 2021-01-15)">
  <defs
     id="defs2">
    <inkscape:path-effect
       effect="bspline"
       id="path-effect847"
       is_visible="true"
       lpeversion="1"
       weight="33.333333"
       steps="2"
       helper_size="0"
       apply_no_weight="true"
       apply_with_weight="true"
       only_selected="false" />
    <inkscape:path-effect
       effect="bspline"
       id="path-effect843"
       is_visible="true"
       lpeversion="1"
       weight="33.333333"
       steps="2"
       helper_size="0"
       apply_no_weight="true"
       apply_with_weight="true"
       only_selected="false" />
    <inkscape:path-effect
       effect="bspline"
       id="path-effect839"
       is_visible="true"
       lpeversion="1"
       weight="33.333333"
       steps="2"
       helper_size="0"
       apply_no_weight="true"
       apply_with_weight="true"
       only_selected="false" />
    <inkscape:path-effect
       effect="bspline"
       id="path-effect835"
       is_visible="true"
       lpeversion="1"
       weight="33.333333"
       steps="2"
       helper_size="0"
       apply_no_weight="true"
       apply_with_weight="true"
       only_selected="false" />
    <filter
       inkscape:collect="always"
       style="color-interpolation-filters:sRGB"
       id="filter1091"
       x="-2.085698e-05"
       width="1.0000417"
       y="-2.8157848e-05"
       height="1.0000563">
      <feGaussianBlur
         inkscape:collect="always"
         stdDeviation="0.00099547961"
         id="feGaussianBlur1093" />
    </filter>
  </defs>
  <sodipodi:namedview
     id="base"
     pagecolor="#ffffff"
     bordercolor="#666666"
     borderopacity="1.0"
     inkscape:pageopacity="0.0"
     inkscape:pageshadow="2"
     inkscape:zoom="1.5177606"
     inkscape:cx="247.07412"
     inkscape:cy="185.04573"
     inkscape:document-units="mm"
     inkscape:current-layer="layer1"
     inkscape:document-rotation="0"
     showgrid="false"
     inkscape:window-width="1314"
     inkscape:window-height="679"
     inkscape:window-x="26"
     inkscape:window-y="23"
     inkscape:window-maximized="0" />
  <metadata
     id="metadata5">
    <rdf:RDF>
      <cc:Work
         rdf:about="">
        <dc:format>image/svg+xml</dc:format>
        <dc:type
           rdf:resource="http://purl.org/dc/dcmitype/StillImage" />
        <dc:title></dc:title>
      </cc:Work>
    </rdf:RDF>
  </metadata>
  <g
     inkscape:label="Livello 1"
     inkscape:groupmode="layer"
     id="layer1">
    <rect
       style="opacity:1;fill:#04006d;fill-opacity:0.19772062;stroke:#000000;stroke-width:0.64987886;stroke-miterlimit:4;stroke-dasharray:none;stroke-dashoffset:0;stroke-opacity:1;filter:url(#filter1091)"
       id="rect853"
       width="114.54923"
       height="84.848495"
       x="31.276743"
       y="14.965278"
       transform="matrix(0.61549932,0,0,0.61549932,12.02501,5.7532408)" />
    <path
       style="fill:#c7000d;fill-opacity:0.2407;stroke:#000000;stroke-width:0.4;stroke-linecap:butt;stroke-linejoin:miter;stroke-opacity:1;stroke-miterlimit:4;stroke-dasharray:none"
       d="m 43.070727,32.832365 c -5.479283,6.611286 1.343326,20.795383 13.642907,24.610818 12.299582,3.815436 30.075427,-2.7373 35.55464,-9.348462 C 97.747487,41.483558 90.929913,34.814174 78.630334,30.998473 66.330755,27.182772 48.55001,26.22108 43.070727,32.832365 Z"
       id="path833"
       inkscape:path-effect="#path-effect835"
       inkscape:original-d="M 30.76874,25.259359 C 37.591512,39.443618 44.414121,53.627715 51.236569,67.811649 69.013288,61.258815 86.789134,54.706081 104.56517,48.153051 97.747484,41.483561 90.929912,34.814175 84.112038,28.144493 66.330747,27.182926 48.550002,26.221232 30.76874,25.259359 Z" />
    <path
       style="fill:#600069;fill-opacity:0.2407;stroke:#000000;stroke-width:0.4;stroke-linecap:butt;stroke-linejoin:miter;stroke-opacity:1;stroke-miterlimit:4;stroke-dasharray:none"
       d="m 52.798111,39.815883 c -2.472962,1.756002 -3.078586,5.629179 -1.077113,7.274356 2.001472,1.645177 6.609696,1.062528 9.082484,-0.693364 2.472788,-1.755893 2.810192,-4.685059 0.808898,-6.330384 -2.001294,-1.645326 -6.341308,-2.006611 -8.814269,-0.250608 z"
       id="path837"
       inkscape:path-effect="#path-effect839"
       inkscape:original-d="m 50.930794,37.698573 c -0.605461,3.873341 -1.211086,7.746518 -1.816872,11.619533 4.608571,-0.582509 9.216795,-1.165159 13.824948,-1.747982 0.33758,-2.929121 0.674983,-5.858287 1.01223,-8.787674 -4.340026,-0.361137 -8.68004,-0.722421 -13.020306,-1.083877 z" />
    <path
       style="fill:#600069;fill-opacity:0.2407;stroke:#000000;stroke-width:0.4;stroke-linecap:butt;stroke-linejoin:miter;stroke-opacity:1;stroke-miterlimit:4;stroke-dasharray:none"
       d="m 71.85653,35.725911 c -0.487018,1.769517 0.834149,5.161686 -0.229275,8.176253 -1.063423,3.014567 -4.511247,5.651643 -3.657191,6.942813 0.854056,1.291169 6.009721,1.236364 10.163914,-0.739445 4.154193,-1.975809 7.306863,-5.872483 6.939973,-8.933036 -0.366891,-3.060553 -4.253462,-5.284906 -7.344394,-6.323833 -3.090932,-1.038927 -5.38601,-0.89227 -5.873027,0.877248 z"
       id="path841"
       inkscape:path-effect="#path-effect843"
       inkscape:original-d="m 70.04827,34.103063 c 1.32133,3.392331 2.642496,6.7845 3.963498,10.176506 -3.447797,2.637344 -6.895621,5.27442 -10.343677,7.911386 5.156031,-0.05464 10.311696,-0.10945 15.467297,-0.164419 3.152963,-3.896668 6.30563,-7.793344 9.458205,-11.690261 -3.886564,-2.224278 -7.773134,-4.448633 -11.659945,-6.673193 -2.295012,0.146826 -4.59009,0.293483 -6.885378,0.439981 z" />
    <path
       style="fill:#43006d;fill-opacity:0.16010076;stroke:#000000;stroke-width:0.4;stroke-linecap:butt;stroke-linejoin:miter;stroke-opacity:1;stroke-miterlimit:4;stroke-dasharray:none"
       d="m 33.878792,30.37235 c -0.639134,5.209754 1.175901,12.93192 7.109845,19.618295 C 46.922581,56.67702 56.974883,62.327459 69.2217,61.193525 81.468516,60.059591 95.909208,52.141628 97.529001,43.483772 99.148795,34.825916 87.947726,25.428518 76.340002,21.35258 64.732278,17.276642 52.718625,18.522464 45.164913,20.493987 37.611201,22.465509 34.517926,25.162595 33.878792,30.37235 Z"
       id="path845"
       inkscape:path-effect="#path-effect847"
       inkscape:original-d="m 31.424577,27.859745 c 1.815199,7.722331 3.630233,15.444497 5.445106,23.1665 10.052868,5.650829 20.105169,11.301269 30.157508,16.951657 C 81.468623,60.059786 95.909314,52.141822 110.35013,44.223538 99.148785,34.825928 87.947713,25.428533 76.746259,16.030786 c -12.013963,1.246034 -24.027616,2.491856 -36.041671,3.73754 -3.093235,2.697357 -6.186511,5.394443 -9.280011,8.091419 z" />
    <g
       transform="matrix(0.63178663,0,0,0.63178663,52.585302,40.489538)"
       ns2:version="1.3.0"
       ns2:texconverter="pdflatex"
       ns2:pdfconverter="inkscape"
       ns2:text="$X_j$"
       ns2:preamble="/home/djanloo/.config/inkscape/extensions/textext/default_packages.tex"
       ns2:scale="0.799999971653521"
       ns2:alignment="middle center"
       ns2:jacobian_sqrt="0.282222"
       id="g1136">
      <defs
         id="id-7226852b-8225-4885-8366-6c9aaa20495b">
        <g
           id="id-3fafe2e2-529d-44eb-85e2-dc76b2fea003">
          <symbol
             overflow="visible"
             id="id-0ee29827-c2ed-4080-bfe7-9a02f01778a4">
            <path
               style="stroke:none;stroke-width:0"
               d=""
               id="id-9d681127-498d-4440-9727-9f3ed78c5b42" />
          </symbol>
          <symbol
             overflow="visible"
             id="id-8b25aec6-f0b4-47ea-badf-763ec5fc59a4">
            <path
               style="stroke:none;stroke-width:0"
               d="M 4.828125,-4.09375 4,-6.078125 c -0.03125,-0.078125 -0.046875,-0.125 -0.046875,-0.125 0,-0.0625 0.15625,-0.25 0.578125,-0.296875 0.109375,-0.015625 0.203125,-0.015625 0.203125,-0.1875 0,-0.125 -0.125,-0.125 -0.15625,-0.125 -0.40625,0 -0.828125,0.03125 -1.25,0.03125 -0.25,0 -0.859375,-0.03125 -1.109375,-0.03125 -0.0625,0 -0.1875,0 -0.1875,0.203125 C 2.03125,-6.5 2.140625,-6.5 2.265625,-6.5 c 0.59375,0 0.65625,0.09375 0.75,0.3125 l 1.171875,2.78125 -2.109375,2.265625 -0.125,0.109375 C 1.46875,-0.5 1,-0.34375 0.484375,-0.3125 c -0.125,0.015625 -0.21875,0.015625 -0.21875,0.203125 0,0.015625 0,0.109375 0.140625,0.109375 0.296875,0 0.625,-0.03125 0.921875,-0.03125 C 1.703125,-0.03125 2.09375,0 2.453125,0 2.515625,0 2.625,0 2.625,-0.203125 2.625,-0.296875 2.53125,-0.3125 2.515625,-0.3125 c -0.09375,0 -0.40625,-0.03125 -0.40625,-0.3125 0,-0.15625 0.15625,-0.3125 0.265625,-0.4375 L 3.40625,-2.140625 4.296875,-3.125 l 1,2.390625 c 0.046875,0.109375 0.0625,0.109375 0.0625,0.140625 0,0.078125 -0.203125,0.25 -0.578125,0.28125 C 4.671875,-0.296875 4.578125,-0.296875 4.578125,-0.125 4.578125,0 4.6875,0 4.71875,0 5,0 5.703125,-0.03125 5.984375,-0.03125 6.234375,-0.03125 6.84375,0 7.09375,0 c 0.0625,0 0.1875,0 0.1875,-0.1875 0,-0.125 -0.109375,-0.125 -0.1875,-0.125 -0.65625,0 -0.6875,-0.03125 -0.859375,-0.4375 C 5.859375,-1.671875 5.1875,-3.234375 4.953125,-3.828125 5.625,-4.53125 6.671875,-5.71875 7,-5.984375 7.28125,-6.234375 7.671875,-6.46875 8.265625,-6.5 c 0.125,-0.015625 0.21875,-0.015625 0.21875,-0.203125 0,0 0,-0.109375 -0.125,-0.109375 -0.296875,0 -0.640625,0.03125 -0.9375,0.03125 -0.375,0 -0.75,-0.03125 -1.109375,-0.03125 -0.0625,0 -0.1875,0 -0.1875,0.203125 0,0.0625 0.046875,0.09375 0.109375,0.109375 0.09375,0.015625 0.40625,0.03125 0.40625,0.3125 0,0.140625 -0.109375,0.265625 -0.1875,0.359375 z m 0,0"
               id="id-be4871dc-b5b2-41b8-9e21-584e1df14e50" />
          </symbol>
          <symbol
             overflow="visible"
             id="id-1acffdfc-0cee-4113-8b21-50b223b039ad">
            <path
               style="stroke:none;stroke-width:0"
               d=""
               id="id-1c8429e6-7016-4bbd-b345-ce0e862e49d7" />
          </symbol>
          <symbol
             overflow="visible"
             id="id-8fc30c93-88ee-4389-a4ae-13f5ec3a4b12">
            <path
               style="stroke:none;stroke-width:0"
               d="M 3.0625,-4.359375 C 3.0625,-4.46875 2.96875,-4.625 2.78125,-4.625 c -0.203125,0 -0.390625,0.203125 -0.390625,0.390625 0,0.109375 0.078125,0.265625 0.28125,0.265625 0.1875,0 0.390625,-0.1875 0.390625,-0.390625 z M 1.578125,0.34375 C 1.46875,0.828125 1.09375,1.21875 0.6875,1.21875 c -0.09375,0 -0.171875,0 -0.25,-0.03125 0.171875,-0.09375 0.234375,-0.25 0.234375,-0.359375 0,-0.171875 -0.140625,-0.25 -0.28125,-0.25 C 0.1875,0.578125 0,0.765625 0,0.984375 c 0,0.265625 0.265625,0.4375 0.6875,0.4375 0.421875,0 1.234375,-0.25 1.453125,-1.09375 l 0.625,-2.5 c 0.015625,-0.078125 0.03125,-0.140625 0.03125,-0.25 0,-0.375 -0.328125,-0.65625 -0.734375,-0.65625 -0.78125,0 -1.21875,0.96875 -1.21875,1.078125 0,0.078125 0.09375,0.078125 0.109375,0.078125 0.078125,0 0.09375,-0.015625 0.140625,-0.125 C 1.265625,-2.453125 1.625,-2.875 2.03125,-2.875 c 0.171875,0 0.234375,0.109375 0.234375,0.34375 0,0.078125 0,0.171875 -0.015625,0.203125 z m 0,0"
               id="id-3c0e1278-03f9-4ed2-9fd5-d8890ab73c4b" />
          </symbol>
        </g>
      </defs>
      <g
         id="id-35bc9075-5b30-429c-bdac-70ae09f29d2e"
         transform="translate(-148.978,-127.953)">
        <g
           style="fill:#000000;fill-opacity:1"
           id="id-8de7fe28-8baf-4c08-92e3-3d7306eb707e">
          <g
             transform="translate(148.712,134.765)"
             id="g1128">
            <path
               style="stroke:none;stroke-width:0"
               d="M 4.828125,-4.09375 4,-6.078125 c -0.03125,-0.078125 -0.046875,-0.125 -0.046875,-0.125 0,-0.0625 0.15625,-0.25 0.578125,-0.296875 0.109375,-0.015625 0.203125,-0.015625 0.203125,-0.1875 0,-0.125 -0.125,-0.125 -0.15625,-0.125 -0.40625,0 -0.828125,0.03125 -1.25,0.03125 -0.25,0 -0.859375,-0.03125 -1.109375,-0.03125 -0.0625,0 -0.1875,0 -0.1875,0.203125 C 2.03125,-6.5 2.140625,-6.5 2.265625,-6.5 c 0.59375,0 0.65625,0.09375 0.75,0.3125 l 1.171875,2.78125 -2.109375,2.265625 -0.125,0.109375 C 1.46875,-0.5 1,-0.34375 0.484375,-0.3125 c -0.125,0.015625 -0.21875,0.015625 -0.21875,0.203125 0,0.015625 0,0.109375 0.140625,0.109375 0.296875,0 0.625,-0.03125 0.921875,-0.03125 C 1.703125,-0.03125 2.09375,0 2.453125,0 2.515625,0 2.625,0 2.625,-0.203125 2.625,-0.296875 2.53125,-0.3125 2.515625,-0.3125 c -0.09375,0 -0.40625,-0.03125 -0.40625,-0.3125 0,-0.15625 0.15625,-0.3125 0.265625,-0.4375 L 3.40625,-2.140625 4.296875,-3.125 l 1,2.390625 c 0.046875,0.109375 0.0625,0.109375 0.0625,0.140625 0,0.078125 -0.203125,0.25 -0.578125,0.28125 C 4.671875,-0.296875 4.578125,-0.296875 4.578125,-0.125 4.578125,0 4.6875,0 4.71875,0 5,0 5.703125,-0.03125 5.984375,-0.03125 6.234375,-0.03125 6.84375,0 7.09375,0 c 0.0625,0 0.1875,0 0.1875,-0.1875 0,-0.125 -0.109375,-0.125 -0.1875,-0.125 -0.65625,0 -0.6875,-0.03125 -0.859375,-0.4375 C 5.859375,-1.671875 5.1875,-3.234375 4.953125,-3.828125 5.625,-4.53125 6.671875,-5.71875 7,-5.984375 7.28125,-6.234375 7.671875,-6.46875 8.265625,-6.5 c 0.125,-0.015625 0.21875,-0.015625 0.21875,-0.203125 0,0 0,-0.109375 -0.125,-0.109375 -0.296875,0 -0.640625,0.03125 -0.9375,0.03125 -0.375,0 -0.75,-0.03125 -1.109375,-0.03125 -0.0625,0 -0.1875,0 -0.1875,0.203125 0,0.0625 0.046875,0.09375 0.109375,0.109375 0.09375,0.015625 0.40625,0.03125 0.40625,0.3125 0,0.140625 -0.109375,0.265625 -0.1875,0.359375 z m 0,0"
               id="id-583cf3a4-a799-4bf1-985d-3f3acb222162" />
          </g>
        </g>
        <g
           style="fill:#000000;fill-opacity:1"
           id="id-8f6100be-e915-4310-a32f-4f45df0f8020">
          <g
             transform="translate(156.966,136.259)"
             id="g1132">
            <path
               style="stroke:none;stroke-width:0"
               d="M 3.0625,-4.359375 C 3.0625,-4.46875 2.96875,-4.625 2.78125,-4.625 c -0.203125,0 -0.390625,0.203125 -0.390625,0.390625 0,0.109375 0.078125,0.265625 0.28125,0.265625 0.1875,0 0.390625,-0.1875 0.390625,-0.390625 z M 1.578125,0.34375 C 1.46875,0.828125 1.09375,1.21875 0.6875,1.21875 c -0.09375,0 -0.171875,0 -0.25,-0.03125 0.171875,-0.09375 0.234375,-0.25 0.234375,-0.359375 0,-0.171875 -0.140625,-0.25 -0.28125,-0.25 C 0.1875,0.578125 0,0.765625 0,0.984375 c 0,0.265625 0.265625,0.4375 0.6875,0.4375 0.421875,0 1.234375,-0.25 1.453125,-1.09375 l 0.625,-2.5 c 0.015625,-0.078125 0.03125,-0.140625 0.03125,-0.25 0,-0.375 -0.328125,-0.65625 -0.734375,-0.65625 -0.78125,0 -1.21875,0.96875 -1.21875,1.078125 0,0.078125 0.09375,0.078125 0.109375,0.078125 0.078125,0 0.09375,-0.015625 0.140625,-0.125 C 1.265625,-2.453125 1.625,-2.875 2.03125,-2.875 c 0.171875,0 0.234375,0.109375 0.234375,0.34375 0,0.078125 0,0.171875 -0.015625,0.203125 z m 0,0"
               id="id-d73f3a4f-4d7c-40f1-9c1f-eb4be198f891" />
          </g>
        </g>
      </g>
    </g>
  </g>
</svg>
